<svg width="27" height="27" viewBox="0 0 27 27" fill="none" xmlns="http://www.w3.org/2000/svg">
<path d="M0 22.6885V17.3916C0 16.5632 0.671573 15.8916 1.5 15.8916C2.32843 15.8916 3 16.5632 3 17.3916V22.6885C3 22.9897 3.12038 23.2809 3.33789 23.4971C3.55591 23.7136 3.85429 23.8369 4.16699 23.8369H22.833C23.1457 23.8369 23.4441 23.7136 23.6621 23.4971C23.8796 23.2809 24 22.9897 24 22.6885V17.3916C24 16.5632 24.6716 15.8916 25.5 15.8916C26.3284 15.8916 27 16.5632 27 17.3916V22.6885C27 23.792 26.5588 24.8488 25.7764 25.626C24.9942 26.4029 23.9348 26.8369 22.833 26.8369H4.16699C3.0652 26.8369 2.00581 26.4029 1.22363 25.626C0.441206 24.8488 0 23.792 0 22.6885ZM12 1.5C12 0.671573 12.6716 0 13.5 0C14.3284 0 15 0.671573 15 1.5V13.7871L19.1094 9.70605C19.697 9.12237 20.6467 9.12542 21.2305 9.71289C21.8142 10.3006 21.8113 11.2502 21.2236 11.834L14.5566 18.4561C13.9718 19.0366 13.0282 19.0366 12.4434 18.4561L5.77637 11.834C5.18874 11.2502 5.18579 10.3006 5.76953 9.71289C6.35335 9.12542 7.30295 9.12236 7.89062 9.70605L12 13.7871V1.5Z" fill="#FFD250"/>
</svg>
